<mxfile host="app.diagrams.net" modified="2023-11-19T20:36:00.287Z" agent="Mozilla/5.0 (Windows NT 10.0; Win64; x64; rv:109.0) Gecko/20100101 Firefox/119.0" etag="jhhsv_rvfd5o00BhmQbb" version="22.1.3" type="github">
  <diagram name="Page-1" id="2YBvvXClWsGukQMizWep">
    <mxGraphModel dx="1148" dy="1140" grid="1" gridSize="10" guides="1" tooltips="1" connect="1" arrows="1" fold="1" page="1" pageScale="1" pageWidth="850" pageHeight="1100" math="0" shadow="0">
      <root>
        <mxCell id="0" />
        <mxCell id="1" parent="0" />
        <mxCell id="_ahK6FNPwu4HrEPc3qoL-10" value="" style="html=1;whiteSpace=wrap;fillColor=none;" vertex="1" parent="1">
          <mxGeometry x="100" y="200" width="630" height="380" as="geometry" />
        </mxCell>
        <mxCell id="_ahK6FNPwu4HrEPc3qoL-32" value="" style="rounded=0;whiteSpace=wrap;html=1;fillColor=none;" vertex="1" parent="1">
          <mxGeometry x="110" y="340" width="540" height="130" as="geometry" />
        </mxCell>
        <mxCell id="aM9ryv3xv72pqoxQDRHE-1" value="Application web" style="shape=umlLifeline;perimeter=lifelinePerimeter;whiteSpace=wrap;html=1;container=0;dropTarget=0;collapsible=0;recursiveResize=0;outlineConnect=0;portConstraint=eastwest;newEdgeStyle={&quot;edgeStyle&quot;:&quot;elbowEdgeStyle&quot;,&quot;elbow&quot;:&quot;vertical&quot;,&quot;curved&quot;:0,&quot;rounded&quot;:0};" parent="1" vertex="1">
          <mxGeometry x="290" y="30" width="100" height="930" as="geometry" />
        </mxCell>
        <mxCell id="aM9ryv3xv72pqoxQDRHE-2" value="" style="html=1;points=[];perimeter=orthogonalPerimeter;outlineConnect=0;targetShapes=umlLifeline;portConstraint=eastwest;newEdgeStyle={&quot;edgeStyle&quot;:&quot;elbowEdgeStyle&quot;,&quot;elbow&quot;:&quot;vertical&quot;,&quot;curved&quot;:0,&quot;rounded&quot;:0};" parent="aM9ryv3xv72pqoxQDRHE-1" vertex="1">
          <mxGeometry x="45" y="70" width="10" height="190" as="geometry" />
        </mxCell>
        <mxCell id="_ahK6FNPwu4HrEPc3qoL-2" value="" style="html=1;points=[];perimeter=orthogonalPerimeter;outlineConnect=0;targetShapes=umlLifeline;portConstraint=eastwest;newEdgeStyle={&quot;edgeStyle&quot;:&quot;elbowEdgeStyle&quot;,&quot;elbow&quot;:&quot;vertical&quot;,&quot;curved&quot;:0,&quot;rounded&quot;:0};" vertex="1" parent="aM9ryv3xv72pqoxQDRHE-1">
          <mxGeometry x="45" y="70" width="10" height="430" as="geometry" />
        </mxCell>
        <mxCell id="aM9ryv3xv72pqoxQDRHE-10" value="" style="html=1;verticalAlign=bottom;endArrow=open;dashed=1;endSize=8;edgeStyle=orthogonalEdgeStyle;elbow=vertical;rounded=0;" parent="aM9ryv3xv72pqoxQDRHE-1" source="_ahK6FNPwu4HrEPc3qoL-2" target="_ahK6FNPwu4HrEPc3qoL-2" edge="1">
          <mxGeometry relative="1" as="geometry">
            <mxPoint x="60.001764705882294" y="149.2" as="targetPoint" />
            <Array as="points">
              <mxPoint x="90" y="129" />
              <mxPoint x="90" y="149" />
            </Array>
            <mxPoint x="65.48999999999995" y="120" as="sourcePoint" />
          </mxGeometry>
        </mxCell>
        <mxCell id="aM9ryv3xv72pqoxQDRHE-5" value="serveur" style="shape=umlLifeline;perimeter=lifelinePerimeter;whiteSpace=wrap;html=1;container=0;dropTarget=0;collapsible=0;recursiveResize=0;outlineConnect=0;portConstraint=eastwest;newEdgeStyle={&quot;edgeStyle&quot;:&quot;elbowEdgeStyle&quot;,&quot;elbow&quot;:&quot;vertical&quot;,&quot;curved&quot;:0,&quot;rounded&quot;:0};" parent="1" vertex="1">
          <mxGeometry x="460" y="40" width="100" height="770" as="geometry" />
        </mxCell>
        <mxCell id="aM9ryv3xv72pqoxQDRHE-7" value="creer reservation" style="html=1;verticalAlign=bottom;endArrow=block;edgeStyle=elbowEdgeStyle;elbow=vertical;curved=0;rounded=0;" parent="1" target="aM9ryv3xv72pqoxQDRHE-1" edge="1">
          <mxGeometry relative="1" as="geometry">
            <mxPoint x="130" y="120" as="sourcePoint" />
            <Array as="points">
              <mxPoint x="215" y="120" />
            </Array>
            <mxPoint x="300" y="120" as="targetPoint" />
          </mxGeometry>
        </mxCell>
        <mxCell id="aM9ryv3xv72pqoxQDRHE-8" value="enregistrer reservation" style="html=1;verticalAlign=bottom;endArrow=open;dashed=1;endSize=8;edgeStyle=elbowEdgeStyle;elbow=vertical;curved=0;rounded=0;" parent="1" edge="1">
          <mxGeometry relative="1" as="geometry">
            <mxPoint x="344" y="520" as="targetPoint" />
            <Array as="points">
              <mxPoint x="439" y="520" />
            </Array>
            <mxPoint x="514" y="520" as="sourcePoint" />
          </mxGeometry>
        </mxCell>
        <mxCell id="_ahK6FNPwu4HrEPc3qoL-1" value="Employe" style="shape=umlActor;verticalLabelPosition=bottom;verticalAlign=top;html=1;outlineConnect=0;" vertex="1" parent="1">
          <mxGeometry x="120" y="30" width="20" height="40" as="geometry" />
        </mxCell>
        <mxCell id="_ahK6FNPwu4HrEPc3qoL-3" value="" style="html=1;points=[];perimeter=orthogonalPerimeter;outlineConnect=0;targetShapes=umlLifeline;portConstraint=eastwest;newEdgeStyle={&quot;edgeStyle&quot;:&quot;elbowEdgeStyle&quot;,&quot;elbow&quot;:&quot;vertical&quot;,&quot;curved&quot;:0,&quot;rounded&quot;:0};" vertex="1" parent="1">
          <mxGeometry x="120" y="110" width="10" height="640" as="geometry" />
        </mxCell>
        <mxCell id="_ahK6FNPwu4HrEPc3qoL-4" value="&lt;font style=&quot;font-size: 10px;&quot;&gt;saisir les deux dates de debut et fin&lt;br&gt;&lt;/font&gt;" style="html=1;verticalAlign=bottom;endArrow=block;edgeStyle=elbowEdgeStyle;elbow=vertical;curved=0;rounded=0;" edge="1" parent="1" source="_ahK6FNPwu4HrEPc3qoL-3" target="_ahK6FNPwu4HrEPc3qoL-2">
          <mxGeometry relative="1" as="geometry">
            <mxPoint x="210" y="170" as="sourcePoint" />
            <Array as="points">
              <mxPoint x="255" y="170" />
            </Array>
            <mxPoint x="320" y="170" as="targetPoint" />
          </mxGeometry>
        </mxCell>
        <mxCell id="_ahK6FNPwu4HrEPc3qoL-9" value="&lt;font style=&quot;font-size: 10px;&quot;&gt;Vérifier les dates&lt;/font&gt;" style="text;strokeColor=none;align=center;fillColor=none;html=1;verticalAlign=middle;whiteSpace=wrap;rounded=0;" vertex="1" parent="1">
          <mxGeometry x="360" y="152" width="130" height="30" as="geometry" />
        </mxCell>
        <mxCell id="_ahK6FNPwu4HrEPc3qoL-11" value="" style="verticalLabelPosition=bottom;verticalAlign=top;html=1;shape=card;whiteSpace=wrap;size=20;arcSize=12;direction=west;fillColor=none;" vertex="1" parent="1">
          <mxGeometry x="100" y="200" width="85" height="30" as="geometry" />
        </mxCell>
        <mxCell id="_ahK6FNPwu4HrEPc3qoL-12" value="ALT" style="text;strokeColor=none;align=center;fillColor=none;html=1;verticalAlign=middle;whiteSpace=wrap;rounded=0;" vertex="1" parent="1">
          <mxGeometry x="120" y="200" width="60" height="30" as="geometry" />
        </mxCell>
        <mxCell id="_ahK6FNPwu4HrEPc3qoL-13" value="si date debut &amp;gt; date fin" style="text;strokeColor=none;align=center;fillColor=none;html=1;verticalAlign=middle;whiteSpace=wrap;rounded=0;" vertex="1" parent="1">
          <mxGeometry x="175" y="210" width="135" height="30" as="geometry" />
        </mxCell>
        <mxCell id="_ahK6FNPwu4HrEPc3qoL-14" value="message d&#39;erreur&quot; verifier les dates&quot;" style="html=1;verticalAlign=bottom;endArrow=open;dashed=1;endSize=8;edgeStyle=elbowEdgeStyle;elbow=vertical;curved=0;rounded=0;" edge="1" parent="1">
          <mxGeometry relative="1" as="geometry">
            <mxPoint x="130" y="270" as="targetPoint" />
            <Array as="points">
              <mxPoint x="235" y="270" />
            </Array>
            <mxPoint x="325" y="270" as="sourcePoint" />
          </mxGeometry>
        </mxCell>
        <mxCell id="_ahK6FNPwu4HrEPc3qoL-20" value="Vérifier la disponibilité de salles" style="html=1;verticalAlign=bottom;endArrow=block;edgeStyle=elbowEdgeStyle;elbow=horizontal;curved=0;rounded=0;dashed=1;" edge="1" parent="1" source="_ahK6FNPwu4HrEPc3qoL-2">
          <mxGeometry relative="1" as="geometry">
            <mxPoint x="340" y="310" as="sourcePoint" />
            <Array as="points">
              <mxPoint x="425" y="310" />
            </Array>
            <mxPoint x="510" y="310" as="targetPoint" />
          </mxGeometry>
        </mxCell>
        <mxCell id="_ahK6FNPwu4HrEPc3qoL-27" value="" style="html=1;verticalAlign=bottom;endArrow=open;dashed=1;endSize=8;edgeStyle=orthogonalEdgeStyle;elbow=vertical;rounded=0;" edge="1" parent="1">
          <mxGeometry relative="1" as="geometry">
            <mxPoint x="510" y="330" as="targetPoint" />
            <Array as="points">
              <mxPoint x="545" y="310" />
              <mxPoint x="545" y="330" />
            </Array>
            <mxPoint x="510" y="310" as="sourcePoint" />
          </mxGeometry>
        </mxCell>
        <mxCell id="_ahK6FNPwu4HrEPc3qoL-28" value="&lt;font style=&quot;font-size: 10px;&quot;&gt;Vérification&lt;br&gt;&lt;/font&gt;" style="text;strokeColor=none;align=center;fillColor=none;html=1;verticalAlign=middle;whiteSpace=wrap;rounded=0;" vertex="1" parent="1">
          <mxGeometry x="510" y="300" width="130" height="30" as="geometry" />
        </mxCell>
        <mxCell id="_ahK6FNPwu4HrEPc3qoL-31" value="" style="endArrow=none;dashed=1;html=1;rounded=0;exitX=-0.019;exitY=0.215;exitDx=0;exitDy=0;exitPerimeter=0;entryX=0.995;entryY=0.202;entryDx=0;entryDy=0;entryPerimeter=0;shadow=0;strokeWidth=2;" edge="1" parent="1" source="_ahK6FNPwu4HrEPc3qoL-10" target="_ahK6FNPwu4HrEPc3qoL-10">
          <mxGeometry width="50" height="50" relative="1" as="geometry">
            <mxPoint x="500" y="530" as="sourcePoint" />
            <mxPoint x="550" y="480" as="targetPoint" />
          </mxGeometry>
        </mxCell>
        <mxCell id="_ahK6FNPwu4HrEPc3qoL-37" value="" style="verticalLabelPosition=bottom;verticalAlign=top;html=1;shape=card;whiteSpace=wrap;size=20;arcSize=12;direction=west;fillColor=none;" vertex="1" parent="1">
          <mxGeometry x="110" y="340" width="85" height="30" as="geometry" />
        </mxCell>
        <mxCell id="_ahK6FNPwu4HrEPc3qoL-39" value="LOOP " style="text;strokeColor=none;align=center;fillColor=none;html=1;verticalAlign=middle;whiteSpace=wrap;rounded=0;" vertex="1" parent="1">
          <mxGeometry x="110" y="340" width="72.5" height="30" as="geometry" />
        </mxCell>
        <mxCell id="_ahK6FNPwu4HrEPc3qoL-41" value="&lt;font style=&quot;font-size: 10px;&quot;&gt;pour chaque salle&lt;/font&gt;" style="text;strokeColor=none;align=center;fillColor=none;html=1;verticalAlign=middle;whiteSpace=wrap;rounded=0;" vertex="1" parent="1">
          <mxGeometry x="185" y="340" width="100" height="30" as="geometry" />
        </mxCell>
        <mxCell id="_ahK6FNPwu4HrEPc3qoL-49" value="le nom de salle" style="html=1;verticalAlign=bottom;endArrow=block;edgeStyle=elbowEdgeStyle;elbow=vertical;curved=0;rounded=0;" edge="1" parent="1">
          <mxGeometry relative="1" as="geometry">
            <mxPoint x="335" y="410.0010344827586" as="sourcePoint" />
            <Array as="points" />
            <mxPoint x="130" y="410.0010344827586" as="targetPoint" />
          </mxGeometry>
        </mxCell>
        <mxCell id="_ahK6FNPwu4HrEPc3qoL-46" value="retourner id salle" style="html=1;verticalAlign=bottom;endArrow=open;dashed=1;endSize=8;edgeStyle=elbowEdgeStyle;elbow=vertical;curved=0;rounded=0;" edge="1" parent="1" target="_ahK6FNPwu4HrEPc3qoL-2">
          <mxGeometry relative="1" as="geometry">
            <mxPoint x="350" y="379" as="targetPoint" />
            <Array as="points">
              <mxPoint x="380" y="410" />
              <mxPoint x="380" y="400" />
              <mxPoint x="340" y="379" />
            </Array>
            <mxPoint x="510" y="379.49" as="sourcePoint" />
          </mxGeometry>
        </mxCell>
        <mxCell id="_ahK6FNPwu4HrEPc3qoL-56" value="choisir une salle" style="html=1;verticalAlign=bottom;endArrow=block;edgeStyle=elbowEdgeStyle;elbow=vertical;curved=0;rounded=0;" edge="1" parent="1" target="aM9ryv3xv72pqoxQDRHE-1">
          <mxGeometry relative="1" as="geometry">
            <mxPoint x="130" y="500" as="sourcePoint" />
            <Array as="points">
              <mxPoint x="215" y="500" />
            </Array>
            <mxPoint x="300" y="500" as="targetPoint" />
          </mxGeometry>
        </mxCell>
        <mxCell id="_ahK6FNPwu4HrEPc3qoL-61" value="demande de la confirmation" style="html=1;verticalAlign=bottom;endArrow=block;edgeStyle=elbowEdgeStyle;elbow=vertical;curved=0;rounded=0;dashed=1;" edge="1" parent="1" source="_ahK6FNPwu4HrEPc3qoL-2">
          <mxGeometry relative="1" as="geometry">
            <mxPoint x="350" y="500" as="sourcePoint" />
            <Array as="points">
              <mxPoint x="425" y="500" />
            </Array>
            <mxPoint x="510" y="500" as="targetPoint" />
          </mxGeometry>
        </mxCell>
        <mxCell id="_ahK6FNPwu4HrEPc3qoL-64" value="" style="html=1;verticalAlign=bottom;endArrow=open;dashed=1;endSize=8;edgeStyle=orthogonalEdgeStyle;elbow=vertical;rounded=0;" edge="1" parent="1">
          <mxGeometry relative="1" as="geometry">
            <mxPoint x="510" y="520" as="targetPoint" />
            <Array as="points">
              <mxPoint x="545" y="500" />
              <mxPoint x="545" y="520" />
            </Array>
            <mxPoint x="510" y="500" as="sourcePoint" />
          </mxGeometry>
        </mxCell>
        <mxCell id="_ahK6FNPwu4HrEPc3qoL-67" value="confirmation&lt;font style=&quot;font-size: 10px;&quot;&gt;&lt;br&gt;&lt;/font&gt;" style="text;strokeColor=none;align=center;fillColor=none;html=1;verticalAlign=middle;whiteSpace=wrap;rounded=0;" vertex="1" parent="1">
          <mxGeometry x="515" y="494" width="130" height="30" as="geometry" />
        </mxCell>
        <mxCell id="_ahK6FNPwu4HrEPc3qoL-70" value="Notifier l&#39;employe" style="html=1;verticalAlign=bottom;endArrow=block;edgeStyle=elbowEdgeStyle;elbow=vertical;curved=0;rounded=0;" edge="1" parent="1" source="_ahK6FNPwu4HrEPc3qoL-2" target="_ahK6FNPwu4HrEPc3qoL-3">
          <mxGeometry relative="1" as="geometry">
            <mxPoint x="325" y="520" as="sourcePoint" />
            <Array as="points">
              <mxPoint x="250" y="520" />
            </Array>
            <mxPoint x="160" y="520" as="targetPoint" />
          </mxGeometry>
        </mxCell>
      </root>
    </mxGraphModel>
  </diagram>
</mxfile>
